<svg width="78.057" height="55.993" version="1.1" viewBox="0 0 20.653 14.815" xmlns="http://www.w3.org/2000/svg">
 <g transform="translate(-161 -94.303)">
  <g transform="matrix(.85359 0 0 .85359 -49.562 -180.16)" fill="#0085d4" stroke="#000" stroke-width=".26458">
   <path d="m247.83 325.43c3.0486 8e-3 6.097 0.0567 9.1451 0.12227 2.3648 0.0614 4.7296 0.12525 7.0948 0.16525 0.92631 0.0198 1.8526 0.0383 2.779 0.0526 0.0287 3e-3 0.32718 0 0.38452 0.0521 0.27699 0.25784 0.0996 1.6701 0.0744 1.9869-0.16193 1.4846-0.3083 2.9702-0.42884 4.4588-0.0551 0.73544-0.0885 1.4752-0.201 2.2048-0.0629 0.52158-0.10761 1.0454-0.16309 1.5681-0.048 0.40208-3e-3 0.81999-0.14272 1.2059-0.0188 0.0193-0.0297 0.0556-0.0566 0.0579-0.0446 4e-3 -0.16547-0.0185-0.1274-0.0421 1.0645-0.65526 2.1744-1.2343 3.2461-1.8777 0.0644-0.0387-0.14385 0.0445-0.21749 0.0596-0.26759 0.0549-0.53874 0.0907-0.80774 0.13817-1.314 0.20055-2.61 0.49443-3.926 0.68323-1.1488 0.16338-2.3086 0.20236-3.4671 0.22268-0.83143 3e-3 -1.6628 0-2.4943 2.6e-4 -0.72996-4e-3 -1.4599-7e-3 -2.1899-0.0138-0.47987-5e-3 -0.95974-9e-3 -1.4396-0.0119-0.36288-3e-3 -0.72577-3e-3 -1.0886-3e-3 -0.3521-2.4e-4 -0.70422 3e-3 -1.0563-8e-5 -0.22979-3e-3 -0.45955-6e-3 -0.68934-9e-3 -0.15459-3e-3 -0.30918 0-0.46378 0-0.17748-3e-3 -0.35493 3e-3 -0.53241 3e-3 -0.31449-0.0188-0.2819 0.12494-0.31709-0.11012-0.11382-1.0726-0.10968-2.1556-0.10208-3.2332-3e-3 -0.97346 0.0268-1.9465 0.0458-2.9196 0.0579-0.64233-0.1008-1.268-0.1946-1.8989-0.0931-0.45874-0.15558-0.92179-0.18123-1.389-0.0195-0.30335-0.0285-0.59373 0.0637-0.88416 0.12119-0.29379 0.21592-0.59841 0.24815-0.91498 0.0231-0.24884 0.0317-0.49874 0.0369-0.74851-0.0263-0.20045 0.0358-0.37052 0.0937-0.55835 0.0424-0.13555 0.0577-0.27715 0.0779-0.41709l-3.5245 1.7204c-0.0264 0.12904-0.0577 0.25647-0.0954 0.38275-0.0537 0.21699-0.0742 0.43304-0.0625 0.65643 5e-5 0.22969-5e-3 0.46035-0.0459 0.68705-0.0705 0.30178-0.17485 0.59245-0.2567 0.89098-0.0523 0.32755-0.0287 0.65503 3e-3 0.98422 0.049 0.47136 0.12495 0.93798 0.22547 1.4013 0.10643 0.60796 0.21746 1.2134 0.18353 1.8342 0.0164 0.95914 0.0418 1.9182 0.0385 2.8776 0.01 1.1186-0.0177 2.2373 3e-3 3.3557 0.0732 0.41314 0.14327 0.61232 0.57934 0.59441 0.17488 0 0.34972 5e-3 0.5246 3e-3 0.15507-1.1e-4 0.31014 0 0.4652 0 0.238-3e-3 0.47597-7e-3 0.71397-9e-3 0.3522-3e-3 0.7044 1.4e-4 1.0566-1e-4 0.36564 0 0.73128 0 1.0969-3e-3 0.49029-3e-3 0.98057-7e-3 1.4708-0.0111 0.73934-6e-3 1.4787-7e-3 2.218-7e-3 0.84091 5e-3 1.6819 9e-3 2.5227-0.0109 1.184-0.0241 2.3704-0.0688 3.5456-0.22299 1.2912-0.18468 2.5663-0.45902 3.8585-0.62534 1.6108-0.22669 4.2783-0.34298 4.5549-2.3361 0.0426-0.40825 0.0356-0.81997 0.082-1.2281 0.0474-0.52068 0.1039-1.0406 0.16362-1.5599 0.0604-0.72388 0.0851-1.4489 0.0924-2.1752 0.0578-1.4795 0.19191-2.9537 0.38013-4.4224 0.0642-0.65317 0.29813-1.8905-0.13592-2.4647-0.15454-0.20444-0.298-0.17306-0.51551-0.19227-0.97414 0.0167-1.9482 0.0371-2.9224 0.0532-2.4573 0.0283-4.9147 0.0581-7.3723 0.0422-2.8928-0.0357-5.7988-0.0455-8.6729-0.41246l-3.1774 2.2487z" opacity=".99986"/>
   <path d="m261.81 326.83c-0.91903 0.0408-1.8391 0.0308-2.7588 0.0315-0.97044-0.0122-1.9438-0.0251-2.8821 0.24569-3.0668 1.7613-3.9906 1.371-4.3493 4.142-0.0998 0.90448-0.13518 1.8024-6e-3 2.7045 0.19059 0.9611 0.51269 1.8768 0.99853 2.7264 0.55498 0.88418 1.2723 1.0649 2.2491 1.2091 1.0189 0.10324 2.0439 0.0796 3.0658 0.1261 0.81937 0.10374 1.4644 0.0114 2.2068-0.34054 1.1901-0.69112 2.3869-1.3708 3.5703-2.0734 0.43239-0.25675 0.53608-0.72546 0.59079-1.1842 0.0287-0.6853 0.14793-1.3621 0.0972-2.048-0.0992-0.68519-0.43959-1.2733-0.81361-1.8412-0.30949-0.39569-0.58831-0.80436-0.81671-1.2515-0.18429-0.32076-0.45595-0.5688-0.73523-0.80471-0.26251-0.2192-0.5663-0.36224-0.87912-0.49215-0.31879-0.11694-0.65225-0.19195-0.98413-0.26215-0.3548-0.06-0.68331-0.20767-1.0269-0.30784-0.16819-0.0492-0.34216-0.0678-0.51557-0.0869l-3.1805 2.2731c0.15926 7e-3 0.3191 0.0116 0.47676 0.0376 0.35939 0.0688 0.68653 0.22018 1.038 0.31001 0.31566 0.0727 0.6293 0.14523 0.94354 0.22204 0.28637 0.0965 0.5737 0.20537 0.81609 0.39031 0.25522 0.18484 0.49346 0.40058 0.65853 0.67201 0.26839 0.43519 0.5575 0.85329 0.87231 1.2566 0.34942 0.49972 0.6541 1.0357 0.724 1.6528 0.0236 0.65952-0.0825 1.3164-0.15953 1.9699-0.0684 0.23117-0.1319 0.42445-0.30813 0.59807-0.17179 0.16925-0.50815 0.35493-0.39579 0.29136 1.0117-0.57246 2.0172-1.1559 3.0258-1.7338-0.75702 0.4548-1.2135 0.61511-2.1151 0.52658-1.0173-0.0355-2.0358-0.0249-3.0516-0.0945-0.80789-0.0904-1.5659-0.19169-2.0424-0.92863-0.47721-0.7965-0.7949-1.6626-0.93822-2.5833-0.0927-0.8753-0.0431-1.7462 0.0656-2.619 0.0684-0.41069 0.13083-0.82452 0.34009-1.1935 0.60813-1.0722 3.6095-2.1348-2.4314 1.0872 0.89282-0.39275 1.857-0.3836 2.8195-0.36389 0.89071 0 1.782-0.0108 2.672 0.0315l3.1592-2.2953z" opacity=".99986"/>
   <path d="m265.99 324.09c-0.018-0.31663-8e-3 -0.63407-3e-3 -0.95097 3e-3 -0.22219 5e-3 -0.44436 4e-3 -0.66656 0-0.1728 3e-3 -0.34557 6e-3 -0.51835 3e-3 -0.0639 0-0.12782-1.8e-4 -0.19171l-3.5155 1.7912c-8e-4 0.064-2e-3 0.12795-1.8e-4 0.1919 3e-3 0.17079 6e-3 0.34155 6e-3 0.51236-8e-4 0.2209 2e-3 0.44175 4e-3 0.66265 5e-3 0.31787 0.015 0.63625-3e-3 0.95388l3.5022-1.7844z" opacity=".99986"/>
  </g>
 </g>
</svg>
