<svg width="397.98" height="400.03" version="1.1" viewBox="0 0 105.3 105.84" xmlns="http://www.w3.org/2000/svg">
 <g fill-rule="evenodd" stroke-width=".36217">
  <path d="m55.695 52.649h20.108c1.759 0 3.175 1.416 3.175 3.175v20.108c0 1.759-1.416 3.175-3.175 3.175h-20.108c-1.759 0-3.175-1.416-3.175-3.175v-20.108c0-1.759 1.416-3.175 3.175-3.175z" fill="#00303c" stop-color="#000000" style="font-variation-settings:normal"/>
  <path d="m29.495 79.379h20.108c1.759 0 3.175 1.416 3.175 3.175v20.108c0 1.759-1.416 3.175-3.175 3.175h-20.108c-1.759 0-3.175-1.416-3.175-3.175v-20.108c0-1.759 1.416-3.175 3.175-3.175z" fill="#fff" stop-color="#000000" style="font-variation-settings:normal"/>
  <path d="m55.695-6.6265e-4h20.108c1.759 0 3.175 1.416 3.175 3.175v20.108c0 1.759-1.416 3.175-3.175 3.175h-20.108c-1.759 0-3.175-1.416-3.175-3.175v-20.108c0-1.759 1.416-3.175 3.175-3.175z" fill="#00aad4" stop-color="#000000" style="font-variation-settings:normal"/>
 </g>
 <path d="m78.975 39.559a13.229 13.229 0 0 1-13.229 13.229 13.229 13.229 0 0 1-13.229-13.229 13.229 13.229 0 0 1 13.229-13.229 13.229 13.229 0 0 1 13.229 13.229z" fill="#f06"/>
 <path d="m29.495 26.459h20.108c1.759 0 3.175 1.416 3.175 3.175v20.108c0 1.759-1.416 3.175-3.175 3.175h-20.108c-1.759 0-3.175-1.416-3.175-3.175v-20.108c0-1.759 1.416-3.175 3.175-3.175z" fill="#fff" fill-rule="evenodd" stop-color="#000000" stroke-width=".36217" style="font-variation-settings:normal"/>
 <path d="m82.015 26.459h20.108c1.759 0 3.175 1.416 3.175 3.175v20.108c0 1.759-1.416 3.175-3.175 3.175h-20.108c-1.759 0-3.175-1.416-3.175-3.175v-20.108c0-1.759 1.416-3.175 3.175-3.175z" fill="#00aad4" fill-rule="evenodd" stop-color="#000000" stroke-width=".36217" style="font-variation-settings:normal"/>
 <path d="m52.785 66.149a13.229 13.229 0 0 1-13.229 13.229 13.229 13.229 0 0 1-13.229-13.229 13.229 13.229 0 0 1 13.229-13.229 13.229 13.229 0 0 1 13.229 13.229z" fill="#fff" fill-opacity=".5"/>
 <path d="m3.175 52.649h20.108c1.759 0 3.175 1.416 3.175 3.175v20.108c0 1.759-1.416 3.175-3.175 3.175h-20.108c-1.759 0-3.175-1.416-3.175-3.175v-20.108c0-1.759 1.416-3.175 3.175-3.175z" fill="#fff" fill-opacity=".5" fill-rule="evenodd" stop-color="#000000" stroke-width=".36217" style="font-variation-settings:normal"/>
</svg>
