<svg width="61.365" height="75.043" version="1.1" viewBox="0 0 16.236 19.855" xmlns="http://www.w3.org/2000/svg">
 <g transform="translate(-162.26 -83.567)">
  <g transform="translate(-7.6309 -341.14)">
   <path d="m174.62 429.98c-0.22598 0.2372-0.43123-0.1876-0.39424-0.3756 0.10024-0.50948 0.74736-0.60667 1.1454-0.41289 0.71207 0.34662 0.81733 1.289 0.43153 1.9153-0.56617 0.91916-1.8378 1.034-2.6851 0.45018-1.1293-0.77818-1.2533-2.3893-0.46882-3.455 0.98715-1.3411 2.9419-1.4739 4.2248-0.48747 1.5538 1.1946 1.6952 3.4953 0.50612 4.9946-1.4013 1.767-4.049 1.917-5.7645 0.52476-1.9806-1.6074-2.1392-4.6031-0.54341-6.5343 1.8132-2.1944 5.1574-2.3615 7.3042-0.56205 2.4084 2.0187 2.584 5.7118 0.5807 8.074-2.2241 2.6225-6.2663 2.8067-8.8438 0.59934" fill="none" stroke="#000" stroke-width=".20304"/>
   <g transform="translate(-.19768 920.21)" fill-rule="evenodd">
    <path d="m181.13-487.93 5.1944-1.9189v12.693l-5.1944 1.509z" fill="#e9e9ff" opacity=".99986"/>
    <path d="m174.82-490.23v12.775l6.3096 1.8073v-12.284z" fill="#353564" opacity=".99986"/>
    <path d="m174.82-490.23 5.1899-2.0782 6.314 2.4576-5.1944 1.9189z" fill="#4d4d9f" opacity=".99986"/>
    <path d="m174.82-477.45 5.1899-1.6342 6.314 1.9326-5.1944 1.509z" fill="#afafde" opacity=".99986"/>
    <path d="m180.01-492.31v13.219l6.314 1.9326v-12.693z" fill="#d7d7ff" opacity=".99986"/>
    <path d="m174.82-490.23 5.1899-2.0782v13.219l-5.1899 1.6342z" fill="#8686bf" opacity=".99986"/>
   </g>
  </g>
 </g>
</svg>
