<?xml version="1.0" standalone="no"?>
<!DOCTYPE svg PUBLIC "-//W3C//DTD SVG 20010904//EN"
 "http://www.w3.org/TR/2001/REC-SVG-20010904/DTD/svg10.dtd">
<svg version="1.0" xmlns="http://www.w3.org/2000/svg"
 width="700.000000pt" height="700.000000pt" viewBox="0 0 700.000000 700.000000"
 preserveAspectRatio="xMidYMid meet">
<metadata>
Created by potrace 1.14, written by Peter Selinger 2001-2017
</metadata>
<g transform="translate(0.000000,700.000000) scale(0.100000,-0.100000)"
fill="#000000" stroke="none">
<path d="M3795 6159 c-283 -16 -693 -84 -1230 -205 -285 -64 -1286 -323 -1312
-340 -33 -21 -32 -78 1 -100 22 -13 39 -14 133 -5 59 6 200 18 313 26 457 34
874 76 887 88 2 2 -38 3 -89 1 -348 -13 -770 -25 -774 -22 -8 9 814 199 1223
284 733 151 1190 195 1220 118 9 -25 -26 -187 -84 -384 -97 -332 -387 -1179
-543 -1586 l-31 -81 -309 -6 -309 -6 -58 26 c-71 33 -184 41 -328 24 -111 -13
-152 -30 -161 -68 -9 -34 4 -54 52 -78 34 -17 65 -21 239 -25 l200 -5 22 -45
c36 -73 46 -144 40 -275 -9 -206 -94 -535 -278 -1066 -144 -419 -235 -695
-273 -824 l-34 -120 -53 -3 c-30 -1 -317 9 -639 22 -322 13 -586 23 -587 22
-8 -7 1146 -1143 1207 -1188 443 -327 1038 -416 1680 -253 461 118 964 396
1341 742 l69 63 540 0 540 0 0 69 0 68 -97 5 c-180 10 -253 56 -386 246 -42
61 -77 113 -77 116 0 4 -187 281 -416 617 -228 336 -413 617 -411 624 11 27
702 737 760 780 77 57 203 120 282 140 32 8 92 15 132 15 l73 0 0 75 0 75
-585 0 -586 0 3 -72 3 -73 105 -6 c119 -7 177 -26 215 -71 32 -37 33 -100 4
-162 -23 -51 -43 -72 -664 -735 l-460 -490 -3 652 c-1 359 0 666 3 684 7 41
50 92 92 109 23 10 81 14 198 14 l165 0 0 75 0 75 -601 0 c-477 0 -600 3 -595
13 2 6 10 28 17 49 l12 36 101 6 c55 3 310 10 566 16 577 14 841 26 874 42 43
19 47 86 7 108 -11 6 -84 6 -197 0 -98 -5 -341 -14 -539 -19 -198 -6 -451 -13
-562 -17 l-201 -6 49 133 c260 696 493 1379 555 1624 31 123 38 168 39 252 0
93 -2 103 -23 126 -34 36 -107 64 -182 72 -126 11 -156 12 -285 4z m-435
-2591 c-225 -585 -436 -1101 -605 -1483 -121 -275 -285 -615 -297 -615 -4 0
-8 1 -8 3 0 15 109 344 190 572 217 615 317 944 361 1191 33 184 34 454 2 532
l-21 52 238 0 238 0 -98 -252z m463 -22 c77 -38 72 14 74 -786 2 -393 0 -857
-5 -1030 l-7 -315 -635 24 -635 25 59 120 c172 355 429 966 706 1676 59 151
110 283 113 293 7 17 18 19 150 15 114 -3 150 -7 180 -22z m1238 -1678 c172
-255 320 -474 330 -488 l17 -25 -542 22 c-297 12 -547 22 -553 22 -10 1 -13
54 -13 234 l0 232 216 233 c119 127 220 232 224 232 4 0 149 -208 321 -462z"/>
</g>
</svg>
