<?xml version="1.0" standalone="no"?>
<!DOCTYPE svg PUBLIC "-//W3C//DTD SVG 20010904//EN"
 "http://www.w3.org/TR/2001/REC-SVG-20010904/DTD/svg10.dtd">
<svg version="1.0" xmlns="http://www.w3.org/2000/svg"
 width="700.000000pt" height="700.000000pt" viewBox="0 0 700.000000 700.000000"
 preserveAspectRatio="xMidYMid meet">
<metadata>
Created by potrace 1.14, written by Peter Selinger 2001-2017
</metadata>
<g transform="translate(0.000000,700.000000) scale(0.100000,-0.100000)"
fill="#000000" stroke="none">
<path d="M3265 6984 c-92 -11 -116 -15 -185 -29 -224 -44 -460 -128 -647 -230
-37 -20 -80 -43 -94 -51 -53 -28 -202 -132 -293 -204 -83 -66 -1400 -1374
-1480 -1470 -309 -372 -506 -829 -554 -1285 -14 -132 -4 -547 13 -575 2 -3 6
-26 9 -50 9 -70 53 -246 88 -345 29 -84 52 -140 109 -260 51 -109 179 -307
281 -432 54 -66 1486 -1494 1557 -1551 271 -221 571 -368 911 -446 58 -13 132
-27 165 -31 33 -4 71 -10 85 -12 14 -2 106 -6 205 -7 189 -3 307 5 435 30 14
2 39 7 55 10 17 2 38 7 47 10 9 3 25 6 35 8 302 60 683 250 969 485 81 66
1368 1346 1450 1441 157 184 292 404 392 640 64 152 133 393 148 515 4 28 8
53 10 57 17 29 26 432 12 553 -13 113 -29 208 -53 310 -8 35 -53 178 -73 235
-72 199 -185 401 -330 590 -81 106 -1482 1512 -1607 1613 -89 72 -191 147
-200 147 -2 0 -23 12 -47 28 -68 43 -79 49 -148 83 -252 123 -452 184 -740
224 -87 13 -425 12 -525 -1z"/>
</g>
</svg>
