<svg width="796.37" height="438.99" version="1.1" viewBox="0 0 210.71 116.15" xmlns="http://www.w3.org/2000/svg" xmlns:xlink="http://www.w3.org/1999/xlink">
 <g>
  <rect transform="rotate(45)" x="42.443" y="-20.063" width="79.375" height="79.375" rx="39.687" ry="39.687" fill="#deeef4" fill-rule="evenodd" stop-color="#000000" stroke-width="1.1428" style="font-variation-settings:normal"/>
  <g transform="translate(.00019285 27.754)" fill="#001129" stroke-width="3.7082" aria-label="Faraaz">
   <path d="m66.955 18.204q-5.4584 0.11866-9.6115 0.11866 1.3053 2.1359 1.0679 6.289-0.23732 4.0345-1.1866 8.0689t-2.6105 9.1369-3.2038 9.2556q-1.4239 4.1531-2.9665 8.4249-1.4239 4.3905-2.0172 6.8823 6.8823-12.341 20.528-48.176zm-43.905-33.818q-0.23732-1.1866 0.83063-1.5426 0 0 20.647-5.3397 35.954-8.5436 38.446-3.2038 1.0679 2.2546-2.3732 12.815-3.3225 10.442-10.205 28.716 25.275-0.5933 28.835-0.94929 1.068 0 1.1866 1.0679t-1.068 1.3053q-2.4919 0.35598-29.784 0.94929-20.291 53.041-24.326 53.16-1.5426 0-1.5426-2.1359 0-2.8479 1.7799-8.6623t3.9158-11.747q2.1359-5.8144 4.0345-12.341 2.0172-6.5264 2.4919-10.798 0.47464-4.3905-1.1866-7.1197-0.11866-0.11866-0.23732-0.23732 0 0-5.933 0-3.7972-0.35598-3.6785-1.7799 0.11866-0.47464 0.35598-0.71197 0.35598-0.35598 0.83063-0.47464 0.5933-0.23732 1.0679-0.23732 0.47464-0.11866 1.1866-0.11866 0.83063-0.11866 1.1866-0.11866 3.5598-0.47464 5.933 1.0679 0.23732 0 0.35598 0 4.9838 0 12.103-0.11866 5.5771-14.833 9.3742-26.699 3.9158-11.985 3.5598-13.883-3.3225-3.0852-49.244 8.1876l10.086-0.35598 8.5436-0.23732q-0.5933 0.11866-3.5598 0.47464-2.8479 0.23732-6.5264 0.5933-3.5598 0.35598-7.1197 0.5933t-6.0517 0.47464q-2.3732 0.23732-2.3732 0.23732-0.47464 0.11866-0.94929-0.11866t-0.5933-0.71197z"/>
   <path d="m85.891 21.171q0.35598 0.35598 0.35598 0.83063t-0.35598 0.83063q-0.23732 0.35598-0.83063 0.35598t-1.6613 1.5426q-1.1866 1.5426-1.6613 3.4412-0.5933 2.3732 0.23732 2.4919 1.3053 0.35598 3.9158-3.4412 2.7292-3.9158 3.5598-5.8144 0.5933-1.1866 1.7799-0.47464 0.71197 0.47464 0.47464 1.3053-0.23732 1.3053-0.35598 2.9665-0.11866 4.9838 3.4412 5.1024 2.0172 0 5.5771-2.3732 3.6785-2.4919 5.5771-4.1531 2.0172-1.7799 2.7292-2.6105 0.83062-0.83063 1.6612 0 0.94929 0.83063 0.11866 1.6613-0.47464 0.35598-1.1866 1.0679-0.5933 0.71197-2.6105 2.4919-1.8986 1.6613-3.6785 2.9665-1.7799 1.3053-4.1531 2.3732-2.3732 0.94929-4.1531 0.94929-4.8651-0.11866-5.5771-5.6957-4.3905 6.8823-7.713 6.0517-3.0852-0.83063-2.0172-5.4584 0.5933-2.4919 2.2546-4.6278 1.5426-2.1359 3.4412-2.1359 0.5933 0 0.83063 0.35598z"/>
   <path d="m109.5 19.747q1.5426-2.1359 2.1359-3.4412-0.47465 0.23732-0.94929 0.47464-0.94929 0.5933-1.3053 1.5426-0.35599 0.94929 0.11866 1.4239zm2.1359 1.0679q1.6612 0.23732 4.0345-0.23732 0.47464-0.11866 0.83063 0.23732 0.47464 0.35598 0.47464 0.83063 0.11866 0.23732 0 0.5933-0.23732 0.35598-0.83063 2.1359-0.47464 1.6613-1.0679 4.0345-0.59331 2.3732-0.35599 3.0852 2.3732-0.11866 6.4077-2.8479 4.0345-2.8479 6.0517-4.6278 2.1359-1.8986 2.9665-2.8479 0.83063-0.83063 1.6613 0 0.94929 0.83063 0.11866 1.6613-0.47465 0.47464-1.1866 1.1866-0.71197 0.71197-2.9665 2.6105-2.1359 1.8986-4.1531 3.4412-2.0172 1.4239-4.5091 2.6105t-4.5091 1.1866q-2.3732 0-2.2546-3.2038 0-2.4919 1.6613-7.4756-2.3732 0.23732-4.0345-0.35598-0.83062 0.23732-1.3053-0.11866-0.23732-0.23732-0.47464-0.83063-1.3053-1.3053-1.1866-2.9665 0-1.7799 1.1866-3.0852 1.3053-1.5426 3.3225-1.8986 2.2546-0.47464 2.6105 1.5426 0.23732 1.5426-2.4919 5.3397z"/>
   <path d="m132.47 21.171q0.35598 0.35598 0.35598 0.83063t-0.35598 0.83063q-0.23732 0.35598-0.83063 0.35598-0.5933 0-1.6612 1.5426-1.1866 1.5426-1.6613 3.4412-0.5933 2.3732 0.23733 2.4919 1.3053 0.35598 3.9158-3.4412 2.7292-3.9158 3.5598-5.8144 0.5933-1.1866 1.7799-0.47464 0.71197 0.47464 0.47465 1.3053-0.23732 1.3053-0.35599 2.9665-0.11866 4.9838 3.4412 5.1024 2.0172 0 5.5771-2.3732 3.6785-2.4919 5.5771-4.1531 2.0172-1.7799 2.7292-2.6105 0.83063-0.83063 1.6612 0 0.94929 0.83063 0.11867 1.6613-0.47465 0.35598-1.1866 1.0679-0.59331 0.71197-2.6106 2.4919-1.8986 1.6613-3.6785 2.9665-1.7799 1.3053-4.1531 2.3732-2.3732 0.94929-4.1531 0.94929-4.8651-0.11866-5.5771-5.6957-4.3905 6.8823-7.713 6.0517-3.0852-0.83063-2.0172-5.4584 0.59331-2.4919 2.2546-4.6278 1.5426-2.1359 3.4412-2.1359 0.59331 0 0.83063 0.35598z"/>
   <path d="m157.5 21.171q0.35598 0.35598 0.35598 0.83063t-0.35598 0.83063q-0.23732 0.35598-0.83063 0.35598-0.5933 0-1.6612 1.5426-1.1866 1.5426-1.6612 3.4412-0.59331 2.3732 0.23732 2.4919 1.3053 0.35598 3.9158-3.4412 2.7292-3.9158 3.5598-5.8144 0.59331-1.1866 1.7799-0.47464 0.71196 0.47464 0.47464 1.3053-0.23732 1.3053-0.35598 2.9665-0.11866 4.9838 3.4412 5.1024 2.0172 0 5.5771-2.3732 3.6785-2.4919 5.5771-4.1531 2.0172-1.7799 2.7292-2.6105 0.83063-0.83063 1.6613 0 0.94929 0.83063 0.11866 1.6613-0.47465 0.35598-1.1866 1.0679-0.59331 0.71197-2.6105 2.4919-1.8986 1.6613-3.6785 2.9665-1.7799 1.3053-4.1531 2.3732-2.3732 0.94929-4.1531 0.94929-4.8651-0.11866-5.5771-5.6957-4.3905 6.8823-7.713 6.0517-3.0852-0.83063-2.0172-5.4584 0.5933-2.4919 2.2546-4.6278 1.5426-2.1359 3.4412-2.1359 0.59331 0 0.83063 0.35598z"/>
   <path d="m180.76 22.12q-0.11867-1.1866 1.0679-1.3053 14.951-1.8986 15.307 1.0679 0.11866 0.94929-3.0852 4.0345-3.2038 2.9665-7.001 6.289-3.6785 3.2038-4.5091 4.3905 5.5771-1.3053 26.224-15.545 0.94929-0.71197 1.6613 0.23732 0.71196 0.94929-0.35599 1.6613 0 0-11.273 7.8316-14.951 9.7302-18.036 7.9503-1.6613-1.0679-0.11867-3.5598 1.068-1.5426 3.3225-3.7972t5.6957-5.1024q3.4412-2.9665 4.0345-3.5598-3.6785-0.11866-11.747 0.47464-0.47465 0-0.83063-0.23732-0.35598-0.35598-0.35598-0.83063z"/>
  </g>
  <g transform="translate(.00019285 27.754)" fill="#001129" stroke-width="1.4141" aria-label="Khhan">
   <path d="m68.204 40.338h14.936v1.6571h-3.1817q-1.0164 0-1.5687 0.53028-0.55238 0.53028-0.55238 1.3478v15.179l12.307-13.147q1.0606-1.1489 1.0606-2.1653 0-0.77332-0.72914-1.2594-0.72914-0.48609-2.3863-0.48609h-0.9059v-1.6571h13.412v1.6571h-1.0385q-1.3478 0-2.9607 0.79542-1.6129 0.79542-2.9828 2.2095l-7.5786 7.8879 10.849 15.997q0.9059 1.3478 1.8781 1.9223 0.97218 0.55238 2.2979 0.55238h1.1931v1.6571h-14.737v-1.6571h1.6792q1.8339 0 2.4305-0.30933 0.61866-0.30933 0.61866-0.77333 0-0.4198-0.26514-0.83961l-9.0148-13.257-5.126 5.5017v8.0426q0 0.75123 0.4419 1.1048 0.70704 0.53028 1.6792 0.53028h3.1817v1.6571h-14.936v-1.6571h2.8724q1.1048 0 1.635-0.4419 0.53028-0.464 0.53028-1.1931v-26.094q0-0.77333-0.59657-1.1931-0.59656-0.4419-2.0106-0.4419h-2.4305z"/>
   <path d="m102.5 40.338 7.8437-0.37562v15.953q1.635-2.1211 3.5131-3.1596 1.8781-1.0606 3.9771-1.0606 1.9886 0 3.5794 0.95009 1.2373 0.75123 2.099 2.6293 0.8838 1.8781 0.8838 4.4411v9.8323q0 0.95009 0.48609 1.392 0.48609 0.4198 1.5246 0.4198h1.7676v1.6571h-11.18v-1.6571h1.2373q1.4141 0 1.9444-0.4419 0.55238-0.464 0.55238-1.3699v-9.8323q0-2.5851-1.2594-4.0213-1.2373-1.4583-3.1817-1.4583-1.5246 0-2.8282 0.81752t-2.2095 2.4967q-0.9059 1.6571-0.9059 3.5131v8.2635q0 1.1048 0.464 1.5687 0.46399 0.464 1.5246 0.464h1.7676v1.6571h-10.937v-1.6571h1.2373q1.2594 0 1.7897-0.48609 0.53028-0.50819 0.53028-1.5467v-24.702q0-1.3257-0.70704-1.9665-0.68495-0.66285-2.0106-0.66285h-1.5025z"/>
   <path d="m130.16 40.338 7.8437-0.37562v15.953q1.635-2.1211 3.5131-3.1596 1.8781-1.0606 3.9771-1.0606 1.9886 0 3.5794 0.95009 1.2373 0.75123 2.099 2.6293 0.8838 1.8781 0.8838 4.4411v9.8323q0 0.95009 0.48609 1.392 0.48609 0.4198 1.5246 0.4198h1.7676v1.6571h-11.18v-1.6571h1.2373q1.4141 0 1.9444-0.4419 0.55237-0.464 0.55237-1.3699v-9.8323q0-2.5851-1.2594-4.0213-1.2373-1.4583-3.1817-1.4583-1.5246 0-2.8282 0.81752-1.3036 0.81752-2.2095 2.4967-0.90589 1.6571-0.90589 3.5131v8.2635q0 1.1048 0.46399 1.5687 0.464 0.464 1.5246 0.464h1.7676v1.6571h-10.937v-1.6571h1.2373q1.2594 0 1.7897-0.48609 0.53028-0.50819 0.53028-1.5467v-24.702q0-1.3257-0.70704-1.9665-0.68494-0.66285-2.0106-0.66285h-1.5025z"/>
   <path d="m180.23 70.741 0.79542 1.2373q-1.6129 1.6571-3.5794 1.6571-1.5025 0-2.5409-0.81752-1.0164-0.81752-1.7897-2.8724-2.099 2.2095-3.6899 2.9607-1.5908 0.72914-3.8224 0.72914-3.1817 0-4.8388-1.3699-1.6571-1.3699-1.6571-3.5131 0-3.2259 3.7782-5.347 3.8003-2.1432 10.097-2.8503v-3.1375q0-1.6792-1.3478-2.8724-1.3478-1.1931-3.4247-1.1931-1.9223 0-3.3143 0.79542-0.99427 0.59657-0.99427 1.171 0 0.33142 0.53028 1.0385 0.64075 0.8838 0.64075 1.5687 0 0.99428-0.64075 1.635-0.64076 0.61866-1.6792 0.61866-1.1048 0-1.856-0.75123-0.72913-0.75123-0.72913-1.9223 0-2.1874 2.4526-3.9992 2.4746-1.8118 6.4738-1.8118 3.6899 0 5.6342 1.5908 1.9444 1.6129 1.9444 3.9108v11.313q0 1.5025 0.48609 2.2095 0.48609 0.72914 1.2594 0.72914 0.8617 0 1.8118-0.70704zm-7.2472-8.7275q-5.6121 0.77333-7.9542 2.5188-1.7455 1.3257-1.7455 3.7562 0 1.7013 0.90589 2.6735 0.9059 0.95008 2.3642 0.95008 2.6072 0 4.5074-1.9665 1.9223-1.9886 1.9223-4.9714z"/>
   <path d="m183.54 52.314 6.8716-0.41981q0.41981 1.9444 0.61866 4.5516 1.392-2.2537 3.2701-3.3805 1.9002-1.1268 4.2864-1.1268 2.0548 0 3.4468 0.81752 1.392 0.79542 2.2316 2.5409 0.83961 1.7455 0.83961 3.9108v10.075q0 1.1268 0.50819 1.6129 0.50818 0.464 1.7013 0.464h1.4583v1.6571h-10.915v-1.6571h1.0385q1.4583 0 2.0327-0.464 0.57447-0.464 0.57447-1.392v-8.8601q0-2.8944-0.8838-4.2864-1.2373-1.9886-3.7562-1.9886-2.4967 0-4.176 2.0106-1.6571 2.0106-1.6571 5.2365v7.667q0 1.1268 0.50819 1.6129 0.53028 0.464 1.7234 0.464h1.4362v1.6571h-10.959v-1.6571h1.4362q1.0827 0 1.635-0.4419 0.57448-0.4419 0.57448-1.1048v-13.367q0-1.3257-0.72914-2.0106-0.70704-0.68494-2.0548-0.68494h-1.0606z"/>
  </g>
 </g>
</svg>
