<svg width="334.1" height="334.1" version="1.1" viewBox="0 0 88.397 88.397" xmlns="http://www.w3.org/2000/svg" xmlns:xlink="http://www.w3.org/1999/xlink">
 <defs>
  <linearGradient id="linearGradient952">
   <stop stop-color="#00222b" offset="0"/>
   <stop stop-color="#1c2422" offset="1"/>
  </linearGradient>
  <linearGradient id="linearGradient942">
   <stop stop-color="#fff" offset="0"/>
   <stop stop-color="#d5f6ff" offset="1"/>
  </linearGradient>
  <linearGradient id="linearGradient918" x1="110.4" x2="151.24" y1="95.356" y2="133.4" gradientTransform="translate(-86.561 -158.27)" gradientUnits="userSpaceOnUse">
   <stop stop-color="#2ad4ff" offset="0"/>
   <stop stop-color="#08a" offset="1"/>
  </linearGradient>
  <linearGradient id="linearGradient944" x1="102.23" x2="126.73" y1="78.959" y2="115.19" gradientUnits="userSpaceOnUse" xlink:href="#linearGradient942"/>
  <linearGradient id="linearGradient954" x1="152.5" x2="89.147" y1="132.36" y2="57.46" gradientUnits="userSpaceOnUse" xlink:href="#linearGradient952"/>
  <linearGradient id="linearGradient1291" x1="102.23" x2="126.73" y1="78.959" y2="110.88" gradientUnits="userSpaceOnUse" xlink:href="#linearGradient942"/>
 </defs>
 <rect transform="rotate(90)" x="4.5104" y="-83.886" width="79.375" height="79.375" rx="28.3" ry="29.449" fill="url(#linearGradient918)" fill-rule="evenodd" stop-color="#000000" stroke-width="1.1428" style="font-variation-settings:normal"/>
 <g transform="translate(-86.635 -69.869)">
  <g transform="translate(3.2406,4.1922)" fill="url(#linearGradient954)" stroke-width=".30682" aria-label="K">
   <path d="m126.73 132.36c-2.0269 2.0269-8.5995 0-8.5995 0v-42.967h8.5995v21.484l16-21.484s8.3108-2.9117 9.7681 0c3.3786 6.7505-13.573 18.128-13.573 18.128l13.573 24.84s-6.9697 1.6646-9.7681 0c-5.6655-3.3702-9.4385-17.379-9.4385-17.379s-5.4095 5.3123-6.562 8.7793c-0.90424 2.7201 2.0269 6.5726 0 8.5995z" fill="url(#linearGradient954)" stroke-width=".30682"/>
  </g>
  <g transform="translate(3.2406,4.1922)" fill="url(#linearGradient944)" aria-label="F">
   <path d="m113.85 132.36c-2.0269 2.0269-8.6375 2.8662-8.5995 0 0.40621-30.656-6.9781-30.909 0-42.967 5.0226-8.6793 30.083 0 30.083 0s2.0269 6.5726 0 8.5995c-5.0638 5.0638-16.42-5.0638-21.484 0-2.0269 2.0269-2.0269 6.5726 0 8.5995 3.0368 3.0368 9.8474-3.0368 12.884 0 2.0269 2.0269 2.0269 6.5726 0 8.5995-3.0368 3.0368-9.8474-3.0368-12.884 0-4.0468 4.0468 4.0468 13.122 0 17.169z" fill="url(#linearGradient1291)"/>
  </g>
 </g>
</svg>
